<svg width="202" height="18" viewBox="0 0 202 18" fill="none" xmlns="http://www.w3.org/2000/svg">
<path d="M0.0175781 1.25195H9.12695C10.6452 1.25195 11.8089 1.62793 12.6182 2.37988C13.4346 3.13184 13.8428 4.06283 13.8428 5.17285C13.8428 6.10384 13.5527 6.90234 12.9727 7.56836C12.5859 8.01237 12.0202 8.36328 11.2754 8.62109C12.4069 8.89323 13.2376 9.3623 13.7676 10.0283C14.3047 10.6872 14.5732 11.5179 14.5732 12.5205C14.5732 13.3369 14.3835 14.071 14.0039 14.7227C13.6243 15.3743 13.1051 15.89 12.4463 16.2695C12.0381 16.5059 11.4222 16.6777 10.5986 16.7852C9.50293 16.9284 8.77604 17 8.41797 17H0.0175781V1.25195ZM4.92676 7.42871H7.04297C7.80208 7.42871 8.32845 7.2998 8.62207 7.04199C8.92285 6.77702 9.07324 6.39746 9.07324 5.90332C9.07324 5.44499 8.92285 5.08691 8.62207 4.8291C8.32845 4.57129 7.81283 4.44238 7.0752 4.44238H4.92676V7.42871ZM4.92676 13.6162H7.4082C8.24609 13.6162 8.83691 13.4694 9.18066 13.1758C9.52441 12.875 9.69629 12.474 9.69629 11.9727C9.69629 11.5072 9.52441 11.1348 9.18066 10.8555C8.84408 10.569 8.24967 10.4258 7.39746 10.4258H4.92676V13.6162ZM17.3232 1.25195H22.2002V17H17.3232V1.25195ZM33.6191 11.2959V8.01953H41.1387V14.7334C39.6992 15.7145 38.4245 16.3841 37.3145 16.7422C36.2116 17.0931 34.901 17.2686 33.3828 17.2686C31.5137 17.2686 29.9883 16.9499 28.8066 16.3125C27.6322 15.6751 26.7191 14.7262 26.0674 13.4658C25.4229 12.2054 25.1006 10.7588 25.1006 9.12598C25.1006 7.40723 25.4551 5.91406 26.1641 4.64648C26.873 3.37174 27.9115 2.40495 29.2793 1.74609C30.3464 1.23763 31.7822 0.983398 33.5869 0.983398C35.3271 0.983398 36.627 1.14095 37.4863 1.45605C38.3529 1.77116 39.069 2.26172 39.6348 2.92773C40.2077 3.58659 40.6374 4.42448 40.9238 5.44141L36.2295 6.2793C36.0361 5.6849 35.7067 5.23014 35.2412 4.91504C34.7829 4.59993 34.1956 4.44238 33.4795 4.44238C32.4124 4.44238 31.5602 4.81478 30.9229 5.55957C30.2926 6.2972 29.9775 7.4681 29.9775 9.07227C29.9775 10.7767 30.2962 11.9941 30.9336 12.7246C31.5781 13.4551 32.4733 13.8203 33.6191 13.8203C34.1634 13.8203 34.6826 13.7415 35.1768 13.584C35.6709 13.4264 36.2367 13.1579 36.874 12.7783V11.2959H33.6191ZM51.3975 1.25195H63.4287V4.63574H56.2852V7.38574H62.3867V10.5654H56.2852V17H51.3975V1.25195ZM66.2432 1.25195H71.1201V17H66.2432V1.25195ZM73.7734 11.79L78.4033 11.5C78.5036 12.252 78.7077 12.8249 79.0156 13.2188C79.5169 13.8561 80.2331 14.1748 81.1641 14.1748C81.8587 14.1748 82.3923 14.0137 82.7646 13.6914C83.1442 13.362 83.334 12.9824 83.334 12.5527C83.334 12.1445 83.1549 11.7793 82.7969 11.457C82.4388 11.1348 81.6081 10.8304 80.3047 10.5439C78.1706 10.0641 76.6488 9.42676 75.7393 8.63184C74.8226 7.83691 74.3643 6.82357 74.3643 5.5918C74.3643 4.78255 74.597 4.01986 75.0625 3.30371C75.5352 2.5804 76.2406 2.01465 77.1787 1.60645C78.124 1.19108 79.4167 0.983398 81.0566 0.983398C83.069 0.983398 84.6016 1.35938 85.6543 2.11133C86.7142 2.85612 87.3444 4.04492 87.5449 5.67773L82.958 5.94629C82.8363 5.2373 82.5785 4.72168 82.1846 4.39941C81.7979 4.07715 81.2607 3.91602 80.5732 3.91602C80.0075 3.91602 79.5814 4.03776 79.2949 4.28125C79.0085 4.51758 78.8652 4.80762 78.8652 5.15137C78.8652 5.40202 78.9834 5.6276 79.2197 5.82812C79.4489 6.03581 79.9932 6.22917 80.8525 6.4082C82.9795 6.86654 84.5013 7.33203 85.418 7.80469C86.3418 8.27018 87.0114 8.85026 87.4268 9.54492C87.8493 10.2396 88.0605 11.0166 88.0605 11.876C88.0605 12.8857 87.7812 13.8167 87.2227 14.6689C86.6641 15.5212 85.8835 16.1693 84.8809 16.6133C83.8783 17.0501 82.6143 17.2686 81.0889 17.2686C78.4105 17.2686 76.5557 16.7529 75.5244 15.7217C74.4932 14.6904 73.9095 13.3799 73.7734 11.79ZM90.542 1.25195H95.4082V6.7627H100.726V1.25195H105.613V17H100.726V10.6299H95.4082V17H90.542V1.25195Z" fill="#5F6366"/>
<path d="M124.111 11.2959V8.01953H131.631V14.7334C130.191 15.7145 128.917 16.3841 127.807 16.7422C126.704 17.0931 125.393 17.2686 123.875 17.2686C122.006 17.2686 120.48 16.9499 119.299 16.3125C118.124 15.6751 117.211 14.7262 116.56 13.4658C115.915 12.2054 115.593 10.7588 115.593 9.12598C115.593 7.40723 115.947 5.91406 116.656 4.64648C117.365 3.37174 118.404 2.40495 119.771 1.74609C120.839 1.23763 122.274 0.983398 124.079 0.983398C125.819 0.983398 127.119 1.14095 127.979 1.45605C128.845 1.77116 129.561 2.26172 130.127 2.92773C130.7 3.58659 131.13 4.42448 131.416 5.44141L126.722 6.2793C126.528 5.6849 126.199 5.23014 125.733 4.91504C125.275 4.59993 124.688 4.44238 123.972 4.44238C122.905 4.44238 122.052 4.81478 121.415 5.55957C120.785 6.2972 120.47 7.4681 120.47 9.07227C120.47 10.7767 120.788 11.9941 121.426 12.7246C122.07 13.4551 122.965 13.8203 124.111 13.8203C124.656 13.8203 125.175 13.7415 125.669 13.584C126.163 13.4264 126.729 13.1579 127.366 12.7783V11.2959H124.111ZM144.21 14.4004H138.667L137.904 17H132.931L138.85 1.25195H144.156L150.075 17H144.983L144.21 14.4004ZM143.189 10.9951L141.449 5.33398L139.72 10.9951H143.189ZM151.59 1.25195H157.992L160.463 10.834L162.923 1.25195H169.304V17H165.329V4.99023L162.246 17H158.647L155.575 4.99023V17H151.59V1.25195ZM172.408 1.25195H185.449V4.61426H177.285V7.11719H184.858V10.3291H177.285V13.4336H185.686V17H172.408V1.25195ZM187.469 11.79L192.099 11.5C192.199 12.252 192.403 12.8249 192.711 13.2188C193.212 13.8561 193.928 14.1748 194.859 14.1748C195.554 14.1748 196.088 14.0137 196.46 13.6914C196.84 13.362 197.029 12.9824 197.029 12.5527C197.029 12.1445 196.85 11.7793 196.492 11.457C196.134 11.1348 195.303 10.8304 194 10.5439C191.866 10.0641 190.344 9.42676 189.435 8.63184C188.518 7.83691 188.06 6.82357 188.06 5.5918C188.06 4.78255 188.292 4.01986 188.758 3.30371C189.23 2.5804 189.936 2.01465 190.874 1.60645C191.819 1.19108 193.112 0.983398 194.752 0.983398C196.764 0.983398 198.297 1.35938 199.35 2.11133C200.41 2.85612 201.04 4.04492 201.24 5.67773L196.653 5.94629C196.532 5.2373 196.274 4.72168 195.88 4.39941C195.493 4.07715 194.956 3.91602 194.269 3.91602C193.703 3.91602 193.277 4.03776 192.99 4.28125C192.704 4.51758 192.561 4.80762 192.561 5.15137C192.561 5.40202 192.679 5.6276 192.915 5.82812C193.144 6.03581 193.688 6.22917 194.548 6.4082C196.675 6.86654 198.197 7.33203 199.113 7.80469C200.037 8.27018 200.707 8.85026 201.122 9.54492C201.545 10.2396 201.756 11.0166 201.756 11.876C201.756 12.8857 201.477 13.8167 200.918 14.6689C200.359 15.5212 199.579 16.1693 198.576 16.6133C197.574 17.0501 196.31 17.2686 194.784 17.2686C192.106 17.2686 190.251 16.7529 189.22 15.7217C188.188 14.6904 187.605 13.3799 187.469 11.79Z" fill="#45B460"/>
</svg>
