<svg width="202" height="18" viewBox="0 0 202 18" fill="none" xmlns="http://www.w3.org/2000/svg">
<path d="M0.683594 1.25195H5.5498V6.7627H10.8672V1.25195H15.7549V17H10.8672V10.6299H5.5498V17H0.683594V1.25195ZM29.2363 1.25195H34.0918V10.6406C34.0918 11.5716 33.945 12.4525 33.6514 13.2832C33.3649 14.1068 32.9102 14.8301 32.2871 15.4531C31.6712 16.069 31.0231 16.5023 30.3428 16.7529C29.3975 17.1038 28.2624 17.2793 26.9375 17.2793C26.1712 17.2793 25.3333 17.2256 24.4238 17.1182C23.5215 17.0107 22.766 16.7995 22.1572 16.4844C21.5485 16.1621 20.9899 15.7074 20.4814 15.1201C19.9801 14.5329 19.6364 13.9277 19.4502 13.3047C19.1494 12.3021 18.999 11.4141 18.999 10.6406V1.25195H23.8545V10.8662C23.8545 11.7256 24.0908 12.3988 24.5635 12.8857C25.0433 13.3656 25.7057 13.6055 26.5508 13.6055C27.3887 13.6055 28.0439 13.3691 28.5166 12.8965C28.9964 12.4167 29.2363 11.7399 29.2363 10.8662V1.25195ZM47.5625 1.25195H52.418V10.6406C52.418 11.5716 52.2712 12.4525 51.9775 13.2832C51.6911 14.1068 51.2363 14.8301 50.6133 15.4531C49.9974 16.069 49.3493 16.5023 48.6689 16.7529C47.7236 17.1038 46.5885 17.2793 45.2637 17.2793C44.4974 17.2793 43.6595 17.2256 42.75 17.1182C41.8477 17.0107 41.0921 16.7995 40.4834 16.4844C39.8747 16.1621 39.3161 15.7074 38.8076 15.1201C38.3063 14.5329 37.9626 13.9277 37.7764 13.3047C37.4756 12.3021 37.3252 11.4141 37.3252 10.6406V1.25195H42.1807V10.8662C42.1807 11.7256 42.417 12.3988 42.8896 12.8857C43.3695 13.3656 44.0319 13.6055 44.877 13.6055C45.7148 13.6055 46.3701 13.3691 46.8428 12.8965C47.3226 12.4167 47.5625 11.7399 47.5625 10.8662V1.25195ZM65.8887 1.25195H70.7441V10.6406C70.7441 11.5716 70.5973 12.4525 70.3037 13.2832C70.0173 14.1068 69.5625 14.8301 68.9395 15.4531C68.3236 16.069 67.6755 16.5023 66.9951 16.7529C66.0498 17.1038 64.9147 17.2793 63.5898 17.2793C62.8236 17.2793 61.9857 17.2256 61.0762 17.1182C60.1738 17.0107 59.4183 16.7995 58.8096 16.4844C58.2008 16.1621 57.6423 15.7074 57.1338 15.1201C56.6325 14.5329 56.2887 13.9277 56.1025 13.3047C55.8018 12.3021 55.6514 11.4141 55.6514 10.6406V1.25195H60.5068V10.8662C60.5068 11.7256 60.7432 12.3988 61.2158 12.8857C61.6956 13.3656 62.3581 13.6055 63.2031 13.6055C64.041 13.6055 64.6963 13.3691 65.1689 12.8965C65.6488 12.4167 65.8887 11.7399 65.8887 10.8662V1.25195ZM81.8838 11.2959V8.01953H89.4033V14.7334C87.9639 15.7145 86.6891 16.3841 85.5791 16.7422C84.4762 17.0931 83.1657 17.2686 81.6475 17.2686C79.7783 17.2686 78.2529 16.9499 77.0713 16.3125C75.8968 15.6751 74.9837 14.7262 74.332 13.4658C73.6875 12.2054 73.3652 10.7588 73.3652 9.12598C73.3652 7.40723 73.7197 5.91406 74.4287 4.64648C75.1377 3.37174 76.1761 2.40495 77.5439 1.74609C78.611 1.23763 80.0469 0.983398 81.8516 0.983398C83.5918 0.983398 84.8916 1.14095 85.751 1.45605C86.6175 1.77116 87.3337 2.26172 87.8994 2.92773C88.4723 3.58659 88.902 4.42448 89.1885 5.44141L84.4941 6.2793C84.3008 5.6849 83.9714 5.23014 83.5059 4.91504C83.0475 4.59993 82.4603 4.44238 81.7441 4.44238C80.6771 4.44238 79.8249 4.81478 79.1875 5.55957C78.5573 6.2972 78.2422 7.4681 78.2422 9.07227C78.2422 10.7767 78.5609 11.9941 79.1982 12.7246C79.8428 13.4551 80.738 13.8203 81.8838 13.8203C82.4281 13.8203 82.9473 13.7415 83.4414 13.584C83.9355 13.4264 84.5013 13.1579 85.1387 12.7783V11.2959H81.8838ZM92.2822 1.25195H105.323V4.61426H97.1592V7.11719H104.732V10.3291H97.1592V13.4336H105.56V17H92.2822V1.25195Z" fill="#5F6366"/>
<path d="M123.456 11.2959V8.01953H130.976V14.7334C129.536 15.7145 128.261 16.3841 127.151 16.7422C126.049 17.0931 124.738 17.2686 123.22 17.2686C121.351 17.2686 119.825 16.9499 118.644 16.3125C117.469 15.6751 116.556 14.7262 115.904 13.4658C115.26 12.2054 114.938 10.7588 114.938 9.12598C114.938 7.40723 115.292 5.91406 116.001 4.64648C116.71 3.37174 117.748 2.40495 119.116 1.74609C120.183 1.23763 121.619 0.983398 123.424 0.983398C125.164 0.983398 126.464 1.14095 127.323 1.45605C128.19 1.77116 128.906 2.26172 129.472 2.92773C130.045 3.58659 130.474 4.42448 130.761 5.44141L126.066 6.2793C125.873 5.6849 125.544 5.23014 125.078 4.91504C124.62 4.59993 124.033 4.44238 123.316 4.44238C122.249 4.44238 121.397 4.81478 120.76 5.55957C120.13 6.2972 119.814 7.4681 119.814 9.07227C119.814 10.7767 120.133 11.9941 120.771 12.7246C121.415 13.4551 122.31 13.8203 123.456 13.8203C124 13.8203 124.52 13.7415 125.014 13.584C125.508 13.4264 126.074 13.1579 126.711 12.7783V11.2959H123.456ZM143.555 14.4004H138.012L137.249 17H132.275L138.194 1.25195H143.501L149.42 17H144.328L143.555 14.4004ZM142.534 10.9951L140.794 5.33398L139.064 10.9951H142.534ZM150.935 1.25195H157.337L159.808 10.834L162.268 1.25195H168.648V17H164.674V4.99023L161.591 17H157.992L154.92 4.99023V17H150.935V1.25195ZM171.753 1.25195H184.794V4.61426H176.63V7.11719H184.203V10.3291H176.63V13.4336H185.03V17H171.753V1.25195ZM186.813 11.79L191.443 11.5C191.544 12.252 191.748 12.8249 192.056 13.2188C192.557 13.8561 193.273 14.1748 194.204 14.1748C194.899 14.1748 195.432 14.0137 195.805 13.6914C196.184 13.362 196.374 12.9824 196.374 12.5527C196.374 12.1445 196.195 11.7793 195.837 11.457C195.479 11.1348 194.648 10.8304 193.345 10.5439C191.211 10.0641 189.689 9.42676 188.779 8.63184C187.863 7.83691 187.404 6.82357 187.404 5.5918C187.404 4.78255 187.637 4.01986 188.103 3.30371C188.575 2.5804 189.281 2.01465 190.219 1.60645C191.164 1.19108 192.457 0.983398 194.097 0.983398C196.109 0.983398 197.642 1.35938 198.694 2.11133C199.754 2.85612 200.384 4.04492 200.585 5.67773L195.998 5.94629C195.876 5.2373 195.618 4.72168 195.225 4.39941C194.838 4.07715 194.301 3.91602 193.613 3.91602C193.048 3.91602 192.621 4.03776 192.335 4.28125C192.049 4.51758 191.905 4.80762 191.905 5.15137C191.905 5.40202 192.023 5.6276 192.26 5.82812C192.489 6.03581 193.033 6.22917 193.893 6.4082C196.02 6.86654 197.541 7.33203 198.458 7.80469C199.382 8.27018 200.051 8.85026 200.467 9.54492C200.889 10.2396 201.101 11.0166 201.101 11.876C201.101 12.8857 200.821 13.8167 200.263 14.6689C199.704 15.5212 198.924 16.1693 197.921 16.6133C196.918 17.0501 195.654 17.2686 194.129 17.2686C191.451 17.2686 189.596 16.7529 188.564 15.7217C187.533 14.6904 186.95 13.3799 186.813 11.79Z" fill="#45B460"/>
</svg>
