<svg width="65" height="64" viewBox="0 0 65 64" fill="none" xmlns="http://www.w3.org/2000/svg">
<path fill-rule="evenodd" clip-rule="evenodd" d="M20.5132 9.03548C18.4124 9.26844 15.9747 9.99612 14.0338 10.9696C8.73231 13.6286 4.87232 18.5143 3.44738 24.3686C2.97478 26.3105 0.5 44.3135 0.5 45.8099C0.5 46.8697 0.941578 48.594 1.52954 49.831C2.31792 51.4892 4.05578 53.264 5.6647 54.0543C8.26657 55.3324 10.9715 55.3147 13.6144 54.0028C14.8924 53.3683 16.2397 52.222 16.9822 51.1377C17.2304 50.7753 18.7624 47.8872 20.3869 44.7197L23.3405 38.9605H32.5212H41.7018L44.6555 44.7197C46.28 47.8872 47.812 50.7753 48.0602 51.1377C49.7433 53.5959 52.9634 55.1555 55.9653 54.9663C58.3329 54.817 60.2051 53.9101 61.9167 52.0831C63.2238 50.6879 63.985 49.1964 64.349 47.3173C64.6546 45.739 64.6219 45.4003 63.0384 33.7772C61.9077 25.4773 61.5746 23.7351 60.7003 21.5469C58.514 16.0751 53.8036 11.5957 48.4576 9.90484C45.5657 8.99013 46.3105 9.03376 33.093 9.00568C26.4493 8.99143 20.7884 9.00496 20.5132 9.03548ZM47.4609 16.1202C49.7176 17.1528 49.847 20.3922 47.6797 21.5989C46.3541 22.3369 44.6499 21.9187 43.7558 20.636C43.1821 19.8128 43.0688 18.4848 43.5003 17.6396C44.2871 16.0981 45.9873 15.4459 47.4609 16.1202ZM21.0851 20.459V22.7627H23.3723H25.6595V25.0664V27.3701H23.3723H21.0851V29.6737V31.9774H18.7978H16.5106V29.6737V27.3701H14.2234H11.9361V25.0664V22.7627H14.2234H16.5106V20.459V18.1553H18.7978H21.0851V20.459ZM41.8427 22.5575C44.1385 24.181 43.2324 27.8279 40.476 28.0581C39.5218 28.1379 38.8012 27.9108 38.1331 27.3201C36.4943 25.8708 36.8641 23.3809 38.8826 22.2737C39.1878 22.1063 39.5879 22.0507 40.2702 22.0809C41.0659 22.1162 41.3333 22.1973 41.8427 22.5575ZM53.648 22.3175C55.6251 23.3418 55.9843 25.8802 54.3561 27.3201C52.3979 29.0517 49.3552 27.6934 49.3383 25.0799C49.33 23.8146 49.9959 22.7571 51.1059 22.2722C51.8141 21.9629 53.0045 21.9842 53.648 22.3175ZM47.7393 28.5724C49.3751 29.4677 49.7447 31.7878 48.4822 33.2362C46.6723 35.3124 43.2426 34.0179 43.2426 31.2587C43.2426 28.8323 45.6196 27.4122 47.7393 28.5724Z" fill="url(#paint0_linear_42_22)"/>
<defs>
<linearGradient id="paint0_linear_42_22" x1="64.5" y1="55" x2="-0.607242" y2="51.2563" gradientUnits="userSpaceOnUse">
<stop stop-color="#41AF5C"/>
<stop offset="1" stop-color="#66E381"/>
</linearGradient>
</defs>
</svg>
