<svg width="500" height="500" viewBox="0 0 500 500" fill="none" xmlns="http://www.w3.org/2000/svg">
<rect width="500" height="500" rx="250" fill="url(#paint0_linear_22_2)"/>
<path d="M233.3 233.2C233.3 237.9 231.65 241.9 228.35 245.2C225.15 248.4 221.25 250 216.65 250H195.8C191.2 250 187.25 248.4 183.95 245.2C180.65 241.9 179 237.9 179 233.2V216.85C179 213.75 179.75 211 181.25 208.6C182.85 206.1 184.9 204.1 187.4 202.6C189.9 201.1 192.7 200.35 195.8 200.35H213.5C214 200.35 214.45 200.15 214.85 199.75C215.35 199.35 215.6 198.85 215.6 198.25V192.25C215.6 191.65 215.35 191.15 214.85 190.75C214.45 190.35 214 190.15 213.5 190.15H195.8C193.9 190.15 192.25 189.5 190.85 188.2C189.55 186.9 188.9 185.3 188.9 183.4V179.35C188.9 177.35 189.55 175.7 190.85 174.4C192.25 173 193.9 172.3 195.8 172.3H216.65C219.75 172.3 222.55 173.05 225.05 174.55C227.55 176.05 229.55 178.1 231.05 180.7C232.55 183.2 233.3 186 233.3 189.1V233.2ZM215.6 230.35V220C215.6 219.5 215.35 219.05 214.85 218.65C214.45 218.25 214 218.05 213.5 218.05H198.95C198.45 218.05 197.95 218.25 197.45 218.65C197.05 219.05 196.85 219.5 196.85 220V230.35C196.85 230.85 197.05 231.3 197.45 231.7C197.95 232.1 198.45 232.3 198.95 232.3H213.5C214 232.3 214.45 232.1 214.85 231.7C215.35 231.3 215.6 230.85 215.6 230.35ZM318.554 243.1C318.554 245 317.854 246.65 316.454 248.05C315.154 249.35 313.554 250 311.654 250H307.454C305.554 250 303.904 249.35 302.504 248.05C301.204 246.65 300.554 245 300.554 243.1V192.25C300.554 190.85 299.904 190.15 298.604 190.15H292.754C291.554 190.15 290.954 190.85 290.954 192.25V243.1C290.954 245 290.254 246.65 288.854 248.05C287.554 249.35 285.954 250 284.054 250H280.004C278.104 250 276.454 249.35 275.054 248.05C273.754 246.65 273.104 245 273.104 243.1V192.25C273.104 190.85 272.504 190.15 271.304 190.15H265.454C264.154 190.15 263.504 190.85 263.504 192.25V243.1C263.504 245 262.804 246.65 261.404 248.05C260.104 249.35 258.504 250 256.604 250H252.404C250.504 250 248.854 249.35 247.454 248.05C246.154 246.65 245.504 245 245.504 243.1V189.1C245.504 186 246.254 183.2 247.754 180.7C249.354 178.1 251.404 176.05 253.904 174.55C256.404 173.05 259.204 172.3 262.304 172.3H274.154C276.354 172.3 278.354 172.75 280.154 173.65C281.354 173.95 282.604 173.95 283.904 173.65C285.704 172.75 287.704 172.3 289.904 172.3H301.754C304.854 172.3 307.654 173.05 310.154 174.55C312.654 176.05 314.654 178.1 316.154 180.7C317.754 183.2 318.554 186 318.554 189.1V243.1ZM384.911 205.45C384.911 208.45 384.161 211.25 382.661 213.85C381.161 216.35 379.161 218.4 376.661 220C374.161 221.5 371.361 222.25 368.261 222.25H350.561C350.061 222.25 349.561 222.45 349.061 222.85C348.661 223.15 348.461 223.55 348.461 224.05V230.35C348.461 230.85 348.661 231.3 349.061 231.7C349.561 232.1 350.061 232.3 350.561 232.3H368.261C370.161 232.3 371.761 232.95 373.061 234.25C374.461 235.55 375.161 237.2 375.161 239.2V243.1C375.161 245 374.461 246.65 373.061 248.05C371.761 249.35 370.161 250 368.261 250H347.411C342.811 250 338.861 248.4 335.561 245.2C332.261 241.9 330.611 237.9 330.611 233.2V189.1C330.611 186 331.361 183.2 332.861 180.7C334.461 178.2 336.511 176.2 339.011 174.7C341.511 173.1 344.311 172.3 347.411 172.3H368.261C371.361 172.3 374.161 173.1 376.661 174.7C379.161 176.2 381.161 178.2 382.661 180.7C384.161 183.2 384.911 186 384.911 189.1V205.45ZM367.211 202.45V192.25C367.211 191.65 366.961 191.15 366.461 190.75C366.061 190.35 365.611 190.15 365.111 190.15H350.561C350.061 190.15 349.561 190.35 349.061 190.75C348.661 191.15 348.461 191.65 348.461 192.25V202.45C348.461 202.85 348.661 203.25 349.061 203.65C349.561 204.05 350.061 204.25 350.561 204.25H365.111C365.611 204.25 366.061 204.05 366.461 203.65C366.961 203.25 367.211 202.85 367.211 202.45Z" fill="#19242B"/>
<path d="M149.75 370.1C149.75 372 149.1 373.65 147.8 375.05C146.5 376.35 144.85 377 142.85 377H138.8C136.9 377 135.25 376.35 133.85 375.05C132.55 373.65 131.9 372 131.9 370.1V337.1C131.9 335.9 131.25 335.3 129.95 335.3H102.95C101.65 335.3 101 335.9 101 337.1V370.1C101 372 100.3 373.65 98.9 375.05C97.6 376.35 96 377 94.1 377H89.9C88 377 86.35 376.35 84.95 375.05C83.65 373.65 83 372 83 370.1V282.5C83 280.5 83.65 278.85 84.95 277.55C86.35 276.25 88 275.6 89.9 275.6H94.1C96 275.6 97.6 276.25 98.9 277.55C100.3 278.85 101 280.5 101 282.5V315.35C101 316.75 101.65 317.45 102.95 317.45H129.95C131.25 317.45 131.9 316.75 131.9 315.35V282.5C131.9 280.5 132.55 278.85 133.85 277.55C135.25 276.25 136.9 275.6 138.8 275.6H142.85C144.85 275.6 146.5 276.25 147.8 277.55C149.1 278.85 149.75 280.5 149.75 282.5V370.1ZM216.255 360.2C216.255 364.9 214.605 368.9 211.305 372.2C208.105 375.4 204.205 377 199.605 377H178.755C174.155 377 170.205 375.4 166.905 372.2C163.605 368.9 161.955 364.9 161.955 360.2V316.1C161.955 313 162.705 310.2 164.205 307.7C165.805 305.1 167.855 303.05 170.355 301.55C172.855 300.05 175.655 299.3 178.755 299.3H199.605C202.705 299.3 205.505 300.05 208.005 301.55C210.505 303.05 212.505 305.1 214.005 307.7C215.505 310.2 216.255 313 216.255 316.1V360.2ZM198.555 357.35V319.25C198.555 318.65 198.305 318.15 197.805 317.75C197.405 317.35 196.955 317.15 196.455 317.15H181.905C181.405 317.15 180.905 317.35 180.405 317.75C180.005 318.15 179.805 318.65 179.805 319.25V357.35C179.805 357.85 180.005 358.3 180.405 358.7C180.905 359.1 181.405 359.3 181.905 359.3H196.455C196.955 359.3 197.405 359.1 197.805 358.7C198.305 358.3 198.555 357.85 198.555 357.35ZM282.759 360.2C282.759 364.9 281.109 368.9 277.809 372.2C274.609 375.4 270.709 377 266.109 377H245.259C240.659 377 236.709 375.4 233.409 372.2C230.109 368.9 228.459 364.9 228.459 360.2V306.35C228.459 304.35 229.109 302.7 230.409 301.4C231.809 300 233.459 299.3 235.359 299.3H239.559C241.459 299.3 243.059 300 244.359 301.4C245.659 302.7 246.309 304.35 246.309 306.35V357.35C246.309 357.85 246.509 358.3 246.909 358.7C247.409 359.1 247.909 359.3 248.409 359.3H262.959C263.459 359.3 263.909 359.1 264.309 358.7C264.809 358.3 265.059 357.85 265.059 357.35V306.35C265.059 304.35 265.709 302.7 267.009 301.4C268.309 300 269.909 299.3 271.809 299.3H276.009C277.909 299.3 279.509 300 280.809 301.4C282.109 302.7 282.759 304.35 282.759 306.35V360.2ZM349.263 360.2C349.263 364.9 347.613 368.9 344.313 372.2C341.113 375.4 337.213 377 332.613 377H311.763C307.163 377 303.213 375.4 299.913 372.2C296.613 368.9 294.963 364.9 294.963 360.2V354.05C294.963 352.15 295.613 350.55 296.913 349.25C298.313 347.85 299.963 347.15 301.863 347.15H306.063C307.963 347.15 309.563 347.85 310.863 349.25C312.163 350.55 312.813 352.15 312.813 354.05V357.35C312.813 358.65 313.513 359.3 314.913 359.3H329.463C329.963 359.3 330.413 359.1 330.813 358.7C331.313 358.3 331.563 357.85 331.563 357.35V351.8C331.563 351 331.163 350.45 330.363 350.15L308.613 343.25C304.613 341.85 301.313 339.45 298.713 336.05C296.213 332.65 294.963 328.8 294.963 324.5V316.1C294.963 313 295.713 310.2 297.213 307.7C298.813 305.2 300.863 303.2 303.363 301.7C305.863 300.1 308.663 299.3 311.763 299.3H332.613C335.713 299.3 338.513 300.1 341.013 301.7C343.513 303.2 345.513 305.2 347.013 307.7C348.513 310.2 349.263 313 349.263 316.1V322.1C349.263 324 348.613 325.65 347.313 327.05C346.013 328.35 344.413 329 342.513 329H338.313C336.413 329 334.813 328.35 333.513 327.05C332.213 325.65 331.563 324 331.563 322.1V319.25C331.563 318.65 331.313 318.15 330.813 317.75C330.413 317.35 329.963 317.15 329.463 317.15H314.913C313.513 317.15 312.813 317.85 312.813 319.25V324.5C312.813 325.5 313.213 326.1 314.013 326.3L335.763 333.2C339.863 334.5 343.113 336.85 345.513 340.25C348.013 343.65 349.263 347.5 349.263 351.8V360.2ZM415.767 332.45C415.767 335.45 415.017 338.25 413.517 340.85C412.017 343.35 410.017 345.4 407.517 347C405.017 348.5 402.217 349.25 399.117 349.25H381.417C380.917 349.25 380.417 349.45 379.917 349.85C379.517 350.15 379.317 350.55 379.317 351.05V357.35C379.317 357.85 379.517 358.3 379.917 358.7C380.417 359.1 380.917 359.3 381.417 359.3H399.117C401.017 359.3 402.617 359.95 403.917 361.25C405.317 362.55 406.017 364.2 406.017 366.2V370.1C406.017 372 405.317 373.65 403.917 375.05C402.617 376.35 401.017 377 399.117 377H378.267C373.667 377 369.717 375.4 366.417 372.2C363.117 368.9 361.467 364.9 361.467 360.2V316.1C361.467 313 362.217 310.2 363.717 307.7C365.317 305.2 367.367 303.2 369.867 301.7C372.367 300.1 375.167 299.3 378.267 299.3H399.117C402.217 299.3 405.017 300.1 407.517 301.7C410.017 303.2 412.017 305.2 413.517 307.7C415.017 310.2 415.767 313 415.767 316.1V332.45ZM398.067 329.45V319.25C398.067 318.65 397.817 318.15 397.317 317.75C396.917 317.35 396.467 317.15 395.967 317.15H381.417C380.917 317.15 380.417 317.35 379.917 317.75C379.517 318.15 379.317 318.65 379.317 319.25V329.45C379.317 329.85 379.517 330.25 379.917 330.65C380.417 331.05 380.917 331.25 381.417 331.25H395.967C396.467 331.25 396.917 331.05 397.317 330.65C397.817 330.25 398.067 329.85 398.067 329.45Z" fill="#19242B"/>
<path d="M165.172 221.747C166.559 226.925 166.538 232.019 165.107 237.027C163.676 242.036 161.152 246.412 157.534 250.157C153.915 253.901 149.519 256.466 144.345 257.853L102.952 268.944C97.7779 270.331 92.6162 270.326 87.4669 268.931C82.4614 267.497 78.0869 264.969 74.3436 261.347C70.6002 257.725 68.0348 253.325 66.6473 248.147L42.8861 159.469C41.46 154.147 41.4624 148.981 42.8932 143.973C44.3241 138.964 46.8485 134.588 50.4665 130.843C54.2283 127.06 58.6962 124.476 63.8704 123.089L105.264 111.998C110.438 110.612 115.528 110.635 120.533 112.069C125.539 113.503 129.913 116.031 133.656 119.653C137.4 123.275 139.984 127.747 141.411 133.069L142.971 138.895C143.704 141.628 143.314 144.199 141.803 146.608C140.436 148.978 138.387 150.529 135.656 151.261L129.835 152.821C127.104 153.553 124.482 153.253 121.969 151.922C119.6 150.553 118.049 148.502 117.316 145.769L115.755 139.943C115.216 137.93 114.012 137.173 112.143 137.674L70.7501 148.765C70.0315 148.958 69.39 149.438 68.8255 150.206C68.4048 150.935 68.31 151.731 68.5413 152.594L92.3025 241.272C92.4952 241.992 92.9753 242.634 93.7429 243.199C94.6158 243.582 95.4115 243.677 96.1301 243.484L137.523 232.393C138.242 232.2 138.812 231.739 139.232 231.01C139.615 230.137 139.709 229.341 139.517 228.621L131.77 199.709C131.307 197.983 130.213 197.351 128.489 197.813L113.182 201.915C110.451 202.647 107.829 202.347 105.316 201.016C102.908 199.503 101.338 197.38 100.605 194.647L98.9866 188.606C98.2543 185.873 98.5719 183.321 99.9393 180.95C101.45 178.541 103.571 176.971 106.302 176.239L139.934 167.228C142.665 166.496 145.215 166.815 147.585 168.184C150.098 169.515 151.721 171.547 152.453 174.28L165.172 221.747Z" fill="#19242B"/>
<defs>
<linearGradient id="paint0_linear_22_2" x1="500" y1="500" x2="-105.923" y2="264.293" gradientUnits="userSpaceOnUse">
<stop stop-color="#41AF5C"/>
<stop offset="1" stop-color="#66E381"/>
</linearGradient>
</defs>
</svg>
