<svg width="99" height="17" viewBox="0 0 99 17" fill="none" xmlns="http://www.w3.org/2000/svg">
<path d="M0.322266 1.25195H6.72461L9.19531 10.834L11.6553 1.25195H18.0361V17H14.0615V4.99023L10.9785 17H7.37988L4.30762 4.99023V17H0.322266V1.25195ZM21.1406 1.25195H34.1816V4.61426H26.0176V7.11719H33.5908V10.3291H26.0176V13.4336H34.418V17H21.1406V1.25195ZM49.1455 17H36.0186C36.1689 15.7038 36.6237 14.4863 37.3828 13.3477C38.1491 12.2018 39.5814 10.8519 41.6797 9.29785C42.9616 8.34538 43.7816 7.62207 44.1396 7.12793C44.4977 6.63379 44.6768 6.16471 44.6768 5.7207C44.6768 5.24089 44.4977 4.83268 44.1396 4.49609C43.7887 4.15234 43.3447 3.98047 42.8076 3.98047C42.249 3.98047 41.7907 4.15592 41.4326 4.50684C41.0817 4.85775 40.8454 5.47721 40.7236 6.36523L36.3408 6.01074C36.5127 4.77897 36.8278 3.81934 37.2861 3.13184C37.7445 2.43717 38.389 1.90723 39.2197 1.54199C40.0576 1.1696 41.2142 0.983398 42.6895 0.983398C44.2292 0.983398 45.4251 1.15885 46.2773 1.50977C47.1367 1.86068 47.8099 2.40137 48.2969 3.13184C48.791 3.85514 49.0381 4.66797 49.0381 5.57031C49.0381 6.52995 48.7552 7.44661 48.1895 8.32031C47.6309 9.19401 46.6104 10.1536 45.1279 11.1992C44.2471 11.8079 43.6562 12.234 43.3555 12.4775C43.0618 12.721 42.7145 13.0397 42.3135 13.4336H49.1455V17ZM51.3262 1.25195H65.0977V4.39941L56.2676 13.6162H65.4199V17H50.4775V13.7344L59.2109 4.61426H51.3262V1.25195Z" fill="#5F6366"/>
<path d="M67.6113 1.25195H80.6523V4.61426H72.4883V7.11719H80.0615V10.3291H72.4883V13.4336H80.8887V17H67.6113V1.25195ZM83.5527 1.25195H88.0967L94.0264 9.96387V1.25195H98.6133V17H94.0264L88.1289 8.35254V17H83.5527V1.25195Z" fill="#45B460"/>
</svg>
