<svg width="122" height="16" viewBox="0 0 122 16" fill="none" xmlns="http://www.w3.org/2000/svg">
<path d="M0.655273 0.251953H8.74414C10.5059 0.251953 11.8236 0.670898 12.6973 1.50879C13.5781 2.34668 14.0186 3.53906 14.0186 5.08594C14.0186 6.67578 13.5387 7.91829 12.5791 8.81348C11.6266 9.70866 10.1693 10.1562 8.20703 10.1562H5.54297V16H0.655273V0.251953ZM5.54297 6.96582H6.73535C7.6735 6.96582 8.33236 6.80469 8.71191 6.48242C9.09147 6.15299 9.28125 5.73405 9.28125 5.22559C9.28125 4.73145 9.11654 4.3125 8.78711 3.96875C8.45768 3.625 7.83822 3.45312 6.92871 3.45312H5.54297V6.96582ZM16.5752 0.251953H21.4414V12.1221H29.0361V16H16.5752V0.251953ZM40.9385 13.4004H35.3955L34.6328 16H29.6592L35.5781 0.251953H40.8848L46.8037 16H41.7119L40.9385 13.4004ZM39.918 9.99512L38.1777 4.33398L36.4482 9.99512H39.918ZM44.9131 0.251953H50.3164L53.4961 5.56934L56.6758 0.251953H62.0469L55.9238 9.4043V16H51.0469V9.4043L44.9131 0.251953Z" fill="#5F6366"/>
<path d="M62.5195 0.251953H77.3115V4.14062H72.3486V16H67.4824V4.14062H62.5195V0.251953ZM79.7178 0.251953H84.5947V16H79.7178V0.251953ZM88.1182 0.251953H92.9844V6.20312L98.0869 0.251953H104.554L98.8174 6.19238L104.812 16H98.8174L95.498 9.52246L92.9844 12.1543V16H88.1182V0.251953ZM116.112 13.4004H110.569L109.807 16H104.833L110.752 0.251953H116.059L121.978 16H116.886L116.112 13.4004ZM115.092 9.99512L113.352 4.33398L111.622 9.99512H115.092Z" fill="#45B460"/>
</svg>
