<svg width="64" height="64" viewBox="0 0 64 64" fill="none" xmlns="http://www.w3.org/2000/svg">
<path fill-rule="evenodd" clip-rule="evenodd" d="M22.0209 6.05263C16.2862 8.27796 11.2354 10.2375 10.797 10.4073L10 10.7159L10.0457 23.4208C10.0842 34.1516 10.1201 36.3412 10.2766 37.5138C11.4881 46.5934 15.1773 52.4387 23.0167 57.6996C25.1751 59.148 26.9593 60.1724 30.1538 61.7973L32.518 63L35.0602 61.7029C39.137 59.6226 42.1808 57.7526 44.5732 55.858C50.2071 51.3965 53.3307 46.1197 54.4603 39.1558C54.9571 36.0933 55 34.7614 55 22.4099V10.7075L54.0921 10.352C50.7842 9.05686 32.5124 1.99464 32.4834 2C32.4637 2.0037 27.7556 3.8273 22.0209 6.05263ZM43.9002 23.0511L46.5641 25.762L37.6608 34.8153L28.7574 43.8687L23.1339 38.1509L17.5103 32.4331L20.3218 29.5741L23.1333 26.7151L26.0338 29.6629L28.9343 32.6106L34.9668 26.4754C38.2846 23.101 41.0525 20.3402 41.1177 20.3402C41.1829 20.3402 42.435 21.5601 43.9002 23.0511Z" fill="url(#paint0_linear_42_27)"/>
<defs>
<linearGradient id="paint0_linear_42_27" x1="55" y1="63" x2="9.11277" y2="61.601" gradientUnits="userSpaceOnUse">
<stop stop-color="#41AF5C"/>
<stop offset="1" stop-color="#66E381"/>
</linearGradient>
</defs>
</svg>
