<svg width="64" height="64" viewBox="0 0 64 64" fill="none" xmlns="http://www.w3.org/2000/svg">
<path fill-rule="evenodd" clip-rule="evenodd" d="M18.5734 9.13119C12.9655 10.0595 8.98684 15.1694 9.29652 21.0459C9.4605 24.1573 10.6578 26.7793 12.8805 28.8951C18.2102 33.9686 26.4836 32.396 29.9181 25.6566C32.3328 20.9182 31.0028 14.714 26.8607 11.3955C24.4757 9.48464 21.4435 8.65619 18.5734 9.13119ZM43.8916 10.7153C41.3588 11.0478 38.9265 12.5847 37.4385 14.7929C34.1811 19.627 35.7183 26.3509 40.7104 29.1046C43.0658 30.4038 45.9473 30.6027 48.3771 29.6335C49.9125 29.0211 51.5085 27.7972 52.4753 26.4907C54.1615 24.212 54.8207 21.3304 54.289 18.5625C53.3188 13.5123 48.7653 10.0756 43.8916 10.7153ZM43.2028 32.2184C41.2079 32.3934 39.0653 32.9925 37.3065 33.8672C36.4274 34.3044 34.6405 35.4652 34.0003 36.015L33.6149 36.3459L34.4134 36.9828C35.3416 37.7235 36.9493 39.4391 37.8034 40.6008C39.8659 43.4056 41.1285 46.4457 41.646 49.8533C41.7426 50.4894 41.822 51.1789 41.8224 51.3857L41.8231 51.7616H51.9115H62L61.9348 49.0148C61.8461 45.277 61.5519 43.911 60.2718 41.2947C57.9204 36.4886 53.4238 33.2146 47.9722 32.3394C46.9048 32.1681 44.4783 32.1064 43.2028 32.2184ZM18.2001 35.5743C12.1579 36.0641 6.76764 39.6115 4.00978 44.9132C2.59184 47.6388 2 50.1992 2 53.6076V55H20.2132H38.4264L38.4263 53.9302C38.4258 48.2524 36.6149 43.8496 32.8112 40.2782C28.9455 36.6487 24.1181 35.0945 18.2001 35.5743Z" fill="url(#paint0_linear_42_24)"/>
<defs>
<linearGradient id="paint0_linear_42_24" x1="62" y1="55" x2="0.937593" y2="51.7084" gradientUnits="userSpaceOnUse">
<stop stop-color="#41AF5C"/>
<stop offset="1" stop-color="#66E381"/>
</linearGradient>
</defs>
</svg>
